# xmcd
#
# Track frame offsets:
# 150
# 16350
# 35700
# 54387
# 72600
# 93475
# 110700
# 130400
# 153987
# 170775
#
# Disc length: 2502 seconds
#
# Revision: 1
# Processed by: cddbd v1.5.1PL0 Copyright (c) Steve Scherf et al.
# Submitted via: Easy CD Ripper v2.27
#
DISCID=9109c40a
DTITLE=李碧華 - 牽引
DYEAR=1993
DGENRE=Blues
TTITLE0=牽引
TTITLE1=我的思念
TTITLE2=惜別
TTITLE3=相思
TTITLE4=想不盡的你
TTITLE5=三月裡的小雨
TTITLE6=第二道彩虹
TTITLE7=為何夢見他
TTITLE8=不一樣
TTITLE9=牽掛
EXTD=
EXTT0=
EXTT1=
EXTT2=
EXTT3=
EXTT4=
EXTT5=
EXTT6=
EXTT7=
EXTT8=
EXTT9=
PLAYORDER=
